<?xml version="1.0" encoding="UTF-8"?>
<!DOCTYPE svg PUBLIC "-//W3C//DTD SVG 1.1//EN" "http://www.w3.org/Graphics/SVG/1.1/DTD/svg11.dtd">
<!-- Creator: CorelDRAW X6 -->
<svg xmlns="http://www.w3.org/2000/svg" xml:space="preserve" width="16.9332mm" height="16.9332mm" version="1.1" style="shape-rendering:geometricPrecision; text-rendering:geometricPrecision; image-rendering:optimizeQuality; fill-rule:evenodd; clip-rule:evenodd"
viewBox="0 0 1693 1693"
 xmlns:xlink="http://www.w3.org/1999/xlink">
 <defs>
  <style type="text/css">
   <![CDATA[
    .fil0 {fill:url(#id0)}
   ]]>
  </style>
  <linearGradient id="id0" gradientUnits="userSpaceOnUse" x1="46.44" y1="1284.02" x2="1632.03" y2="409.3">
   <stop offset="0" style="stop-color:#342223"/>
   <stop offset="0.101961" style="stop-color:#895B25"/>
   <stop offset="0.290196" style="stop-color:#CDAC33"/>
   <stop offset="0.439216" style="stop-color:#F9F3AB"/>
   <stop offset="0.6" style="stop-color:#D5B26A"/>
   <stop offset="0.721569" style="stop-color:#D2AD4B"/>
   <stop offset="1" style="stop-color:#6C3C22"/>
  </linearGradient>
 </defs>
 <g id="Warstwa_x0020_1">
  <metadata id="CorelCorpID_0Corel-Layer"/>
  <path class="fil0" d="M1571 56l-70 0c-5,0 -7,2 -7,7 0,5 2,7 7,7 13,0 20,11 20,31l-253 1225 -156 -754 97 -467 0 -2 2 -9c6,-16 17,-25 34,-25 5,0 7,-2 7,-7 0,-5 -2,-7 -7,-7l-70 0c-5,0 -7,2 -7,7 0,5 2,7 7,7 13,0 20,11 20,31l-90 438 -91 -433c0,-24 7,-36 20,-36 5,0 7,-2 7,-7 0,-5 -2,-7 -7,-7l-185 0c-5,0 -7,2 -7,7 0,5 2,7 7,7 5,0 9,2 15,5 5,4 10,9 15,15 5,6 7,12 7,18l154 740 -97 478 -177 -856 0 -372c0,-9 2,-16 8,-21 5,-5 12,-8 20,-8 5,0 7,-2 7,-7 0,-5 -2,-7 -7,-7l-183 0c-5,0 -7,2 -7,7 0,5 2,7 7,7 8,0 14,2 20,8 5,5 8,12 8,21l0 1211c0,87 -20,162 -60,225 -40,62 -87,94 -144,94 -55,0 -104,-31 -144,-94 -41,-62 -61,-137 -61,-225 0,-5 -2,-7 -7,-7l-113 0c-5,0 -7,2 -7,7 0,90 32,168 97,233 65,66 143,98 235,98 92,0 170,-33 235,-98 65,-66 97,-144 97,-233l0 -226 114 551 0 5 5 0c0,2 0,2 1,2 1,0 1,-1 1,-2l5 0 0 -5 59 -275 97 -478 156 754 2 2 0 2 5 0 0 2c2,0 2,-1 2,-2l5 0 0 -5 59 -275 260 -1254 0 -2 2 -9c6,-16 17,-25 34,-25 5,0 7,-2 7,-7 0,-5 -2,-7 -7,-7l2 3 0 0z"/>
 </g>
</svg>
