<svg width="20" height="20" viewBox="0 0 20 20" fill="none" xmlns="http://www.w3.org/2000/svg">
<path d="M10 4.79846C7.17746 4.79846 4.83875 7.09685 4.83875 9.95975C4.83875 12.8227 7.13713 15.121 10 15.121C12.8629 15.121 15.1613 12.7823 15.1613 9.95975C15.1613 7.13717 12.8226 4.79846 10 4.79846ZM10 13.2662C8.18552 13.2662 6.69358 11.7743 6.69358 9.95975C6.69358 8.14524 8.18552 6.6533 10 6.6533C11.8146 6.6533 13.3065 8.14524 13.3065 9.95975C13.3065 11.7743 11.8146 13.2662 10 13.2662Z" fill="#BE9722"/>
<path d="M15.363 5.84689C16.0088 5.84689 16.5323 5.32335 16.5323 4.67753C16.5323 4.03172 16.0088 3.50818 15.363 3.50818C14.7171 3.50818 14.1936 4.03172 14.1936 4.67753C14.1936 5.32335 14.7171 5.84689 15.363 5.84689Z" fill="#BE9722"/>
<path d="M18.3871 1.65323C17.3387 0.564516 15.8468 0 14.1532 0H5.84677C2.33871 0 0 2.33871 0 5.84677V14.1129C0 15.8468 0.564516 17.3387 1.69355 18.4274C2.78226 19.4758 4.23387 20 5.8871 20H14.1129C15.8468 20 17.2984 19.4355 18.3468 18.4274C19.4355 17.379 20 15.8871 20 14.1532V5.84677C20 4.15323 19.4355 2.70161 18.3871 1.65323ZM18.2258 14.1532C18.2258 15.4032 17.7823 16.4113 17.0565 17.0968C16.3306 17.7823 15.3226 18.1452 14.1129 18.1452H5.8871C4.67742 18.1452 3.66935 17.7823 2.94355 17.0968C2.21774 16.371 1.85484 15.3629 1.85484 14.1129V5.84677C1.85484 4.6371 2.21774 3.62903 2.94355 2.90323C3.62903 2.21774 4.67742 1.85484 5.8871 1.85484H14.1935C15.4032 1.85484 16.4113 2.21774 17.1371 2.94355C17.8226 3.66935 18.2258 4.67742 18.2258 5.84677V14.1532Z" fill="#BE9722"/>
</svg>
