<?xml version="1.0" encoding="UTF-8"?>
<!DOCTYPE svg PUBLIC "-//W3C//DTD SVG 1.1//EN" "http://www.w3.org/Graphics/SVG/1.1/DTD/svg11.dtd">
<!-- Creator: CorelDRAW X6 -->
<svg xmlns="http://www.w3.org/2000/svg" xml:space="preserve" width="118.269mm" height="53.975mm" version="1.1" style="shape-rendering:geometricPrecision; text-rendering:geometricPrecision; image-rendering:optimizeQuality; fill-rule:evenodd; clip-rule:evenodd"
viewBox="0 0 11827 5398"
 xmlns:xlink="http://www.w3.org/1999/xlink">
 <defs>
  <style type="text/css">
   <![CDATA[
    .fil22 {fill:url(#id0)}
    .fil20 {fill:url(#id1)}
    .fil19 {fill:url(#id2)}
    .fil21 {fill:url(#id3)}
    .fil34 {fill:url(#id4)}
    .fil33 {fill:url(#id5)}
    .fil27 {fill:url(#id6)}
    .fil28 {fill:url(#id7)}
    .fil26 {fill:url(#id8)}
    .fil24 {fill:url(#id9)}
    .fil25 {fill:url(#id10)}
    .fil23 {fill:url(#id11)}
    .fil32 {fill:url(#id12)}
    .fil31 {fill:url(#id13)}
    .fil0 {fill:url(#id14)}
    .fil29 {fill:url(#id15)}
    .fil30 {fill:url(#id16)}
    .fil12 {fill:url(#id17)}
    .fil2 {fill:url(#id18)}
    .fil1 {fill:url(#id19)}
    .fil11 {fill:url(#id20)}
    .fil7 {fill:url(#id21)}
    .fil4 {fill:url(#id22)}
    .fil8 {fill:url(#id23)}
    .fil16 {fill:url(#id24)}
    .fil18 {fill:url(#id25)}
    .fil3 {fill:url(#id26)}
    .fil15 {fill:url(#id27)}
    .fil17 {fill:url(#id28)}
    .fil10 {fill:url(#id29)}
    .fil5 {fill:url(#id30)}
    .fil9 {fill:url(#id31)}
    .fil6 {fill:url(#id32)}
    .fil14 {fill:url(#id33)}
    .fil13 {fill:url(#id34)}
   ]]>
  </style>
  <linearGradient id="id0" gradientUnits="userSpaceOnUse" x1="7966.62" y1="5247.38" x2="11580.2" y2="4283.12">
   <stop offset="0" style="stop-color:#342223"/>
   <stop offset="0.101961" style="stop-color:#895B25"/>
   <stop offset="0.290196" style="stop-color:#CDAC33"/>
   <stop offset="0.439216" style="stop-color:#F9F3AB"/>
   <stop offset="0.6" style="stop-color:#D5B26A"/>
   <stop offset="0.721569" style="stop-color:#D2AD4B"/>
   <stop offset="1" style="stop-color:#6C3C22"/>
  </linearGradient>
  <linearGradient id="id1" gradientUnits="userSpaceOnUse" x1="391.55" y1="5247.26" x2="4004.31" y2="4283.24">
   <stop offset="0" style="stop-color:#342223"/>
   <stop offset="0.101961" style="stop-color:#895B25"/>
   <stop offset="0.290196" style="stop-color:#CDAC33"/>
   <stop offset="0.439216" style="stop-color:#F9F3AB"/>
   <stop offset="0.6" style="stop-color:#D5B26A"/>
   <stop offset="0.721569" style="stop-color:#D2AD4B"/>
   <stop offset="1" style="stop-color:#6C3C22"/>
  </linearGradient>
  <linearGradient id="id2" gradientUnits="userSpaceOnUse" x1="395.56" y1="5247.17" x2="4000.3" y2="4283.33">
   <stop offset="0" style="stop-color:#342223"/>
   <stop offset="0.101961" style="stop-color:#895B25"/>
   <stop offset="0.290196" style="stop-color:#CDAC33"/>
   <stop offset="0.439216" style="stop-color:#F9F3AB"/>
   <stop offset="0.6" style="stop-color:#D5B26A"/>
   <stop offset="0.721569" style="stop-color:#D2AD4B"/>
   <stop offset="1" style="stop-color:#6C3C22"/>
  </linearGradient>
  <linearGradient id="id3" gradientUnits="userSpaceOnUse" xlink:href="#id2" x1="7970.62" y1="5247.29" x2="11576.2" y2="4283.21">
  </linearGradient>
  <linearGradient id="id4" gradientUnits="userSpaceOnUse" x1="6714.04" y1="4911.09" x2="6972.82" y2="4842.41">
   <stop offset="0" style="stop-color:#342223"/>
   <stop offset="0.101961" style="stop-color:#895B25"/>
   <stop offset="0.290196" style="stop-color:#CDAC33"/>
   <stop offset="0.439216" style="stop-color:#F9F3AB"/>
   <stop offset="0.6" style="stop-color:#D5B26A"/>
   <stop offset="0.721569" style="stop-color:#D2AD4B"/>
   <stop offset="1" style="stop-color:#6C3C22"/>
  </linearGradient>
  <linearGradient id="id5" gradientUnits="userSpaceOnUse" xlink:href="#id4" x1="6721.83" y1="4908.78" x2="6966.03" y2="4843.72">
  </linearGradient>
  <linearGradient id="id6" gradientUnits="userSpaceOnUse" x1="5641.63" y1="4979.9" x2="6014.23" y2="4880.6">
   <stop offset="0" style="stop-color:#342223"/>
   <stop offset="0.101961" style="stop-color:#895B25"/>
   <stop offset="0.290196" style="stop-color:#CDAC33"/>
   <stop offset="0.439216" style="stop-color:#F9F3AB"/>
   <stop offset="0.6" style="stop-color:#D5B26A"/>
   <stop offset="0.721569" style="stop-color:#D2AD4B"/>
   <stop offset="1" style="stop-color:#6C3C22"/>
  </linearGradient>
  <linearGradient id="id7" gradientUnits="userSpaceOnUse" xlink:href="#id4" x1="5637.07" y1="4963.21" x2="6015.79" y2="4862.29">
  </linearGradient>
  <linearGradient id="id8" gradientUnits="userSpaceOnUse" xlink:href="#id6" x1="4805.87" y1="4965.07" x2="6532.99" y2="4504.43">
  </linearGradient>
  <linearGradient id="id9" gradientUnits="userSpaceOnUse" xlink:href="#id4" x1="5028.14" y1="4975.19" x2="5533.72" y2="4840.31">
  </linearGradient>
  <linearGradient id="id10" gradientUnits="userSpaceOnUse" xlink:href="#id6" x1="4812.85" y1="4958.94" x2="6523.01" y2="4502.56">
  </linearGradient>
  <linearGradient id="id11" gradientUnits="userSpaceOnUse" xlink:href="#id4" x1="5035.89" y1="4972.26" x2="5522.97" y2="4842.24">
  </linearGradient>
  <linearGradient id="id12" gradientUnits="userSpaceOnUse" x1="6450.54" y1="4879.42" x2="6778.32" y2="4792.08">
   <stop offset="0" style="stop-color:#342223"/>
   <stop offset="0.101961" style="stop-color:#895B25"/>
   <stop offset="0.290196" style="stop-color:#CDAC33"/>
   <stop offset="0.439216" style="stop-color:#F9F3AB"/>
   <stop offset="0.6" style="stop-color:#D5B26A"/>
   <stop offset="0.721569" style="stop-color:#D2AD4B"/>
   <stop offset="1" style="stop-color:#6C3C22"/>
  </linearGradient>
  <linearGradient id="id13" gradientUnits="userSpaceOnUse" xlink:href="#id12" x1="6460.95" y1="4874.74" x2="6761.91" y2="4794.76">
  </linearGradient>
  <linearGradient id="id14" gradientUnits="userSpaceOnUse" x1="4894.15" y1="1579.37" x2="6926.71" y2="458.13">
   <stop offset="0" style="stop-color:#342223"/>
   <stop offset="0.101961" style="stop-color:#895B25"/>
   <stop offset="0.290196" style="stop-color:#CDAC33"/>
   <stop offset="0.439216" style="stop-color:#F9F3AB"/>
   <stop offset="0.6" style="stop-color:#D5B26A"/>
   <stop offset="0.721569" style="stop-color:#D2AD4B"/>
   <stop offset="1" style="stop-color:#6C3C22"/>
  </linearGradient>
  <linearGradient id="id15" gradientUnits="userSpaceOnUse" xlink:href="#id14" x1="5950.8" y1="4744.31" x2="6792.06" y2="4520.19">
  </linearGradient>
  <linearGradient id="id16" gradientUnits="userSpaceOnUse" x1="5945.42" y1="4748.42" x2="6801.44" y2="4520.08">
   <stop offset="0" style="stop-color:#342223"/>
   <stop offset="0.101961" style="stop-color:#895B25"/>
   <stop offset="0.290196" style="stop-color:#CDAC33"/>
   <stop offset="0.439216" style="stop-color:#F9F3AB"/>
   <stop offset="0.6" style="stop-color:#D5B26A"/>
   <stop offset="0.721569" style="stop-color:#D2AD4B"/>
   <stop offset="1" style="stop-color:#6C3C22"/>
  </linearGradient>
  <linearGradient id="id17" gradientUnits="userSpaceOnUse" x1="6938.65" y1="3653.2" x2="7841.21" y2="3412.3">
   <stop offset="0" style="stop-color:#342223"/>
   <stop offset="0.101961" style="stop-color:#895B25"/>
   <stop offset="0.290196" style="stop-color:#CDAC33"/>
   <stop offset="0.439216" style="stop-color:#F9F3AB"/>
   <stop offset="0.6" style="stop-color:#D5B26A"/>
   <stop offset="0.721569" style="stop-color:#D2AD4B"/>
   <stop offset="1" style="stop-color:#6C3C22"/>
  </linearGradient>
  <linearGradient id="id18" gradientUnits="userSpaceOnUse" xlink:href="#id17" x1="-41.43" y1="3653.36" x2="861.29" y2="3412.14">
  </linearGradient>
  <linearGradient id="id19" gradientUnits="userSpaceOnUse" x1="-25.14" y1="3649.81" x2="843" y2="3417.69">
   <stop offset="0" style="stop-color:#342223"/>
   <stop offset="0.101961" style="stop-color:#895B25"/>
   <stop offset="0.290196" style="stop-color:#CDAC33"/>
   <stop offset="0.439216" style="stop-color:#F9F3AB"/>
   <stop offset="0.6" style="stop-color:#D5B26A"/>
   <stop offset="0.721569" style="stop-color:#D2AD4B"/>
   <stop offset="1" style="stop-color:#6C3C22"/>
  </linearGradient>
  <linearGradient id="id20" gradientUnits="userSpaceOnUse" xlink:href="#id19" x1="6954.98" y1="3649.91" x2="7823.88" y2="3417.59">
  </linearGradient>
  <linearGradient id="id21" gradientUnits="userSpaceOnUse" x1="4308.63" y1="3620.03" x2="4956.23" y2="3446.47">
   <stop offset="0" style="stop-color:#342223"/>
   <stop offset="0.101961" style="stop-color:#895B25"/>
   <stop offset="0.290196" style="stop-color:#CDAC33"/>
   <stop offset="0.439216" style="stop-color:#F9F3AB"/>
   <stop offset="0.6" style="stop-color:#D5B26A"/>
   <stop offset="0.721569" style="stop-color:#D2AD4B"/>
   <stop offset="1" style="stop-color:#6C3C22"/>
  </linearGradient>
  <linearGradient id="id22" gradientUnits="userSpaceOnUse" xlink:href="#id21" x1="1587.53" y1="3619.83" x2="2244.33" y2="3443.67">
  </linearGradient>
  <linearGradient id="id23" gradientUnits="userSpaceOnUse" xlink:href="#id21" x1="4306.49" y1="3621.21" x2="4962.37" y2="3445.29">
  </linearGradient>
  <linearGradient id="id24" gradientUnits="userSpaceOnUse" xlink:href="#id21" x1="9857.49" y1="3620.21" x2="10513.4" y2="3444.29">
  </linearGradient>
  <linearGradient id="id25" gradientUnits="userSpaceOnUse" xlink:href="#id21" x1="11199.7" y1="3622.78" x2="11856.1" y2="3446.72">
  </linearGradient>
  <linearGradient id="id26" gradientUnits="userSpaceOnUse" xlink:href="#id21" x1="1593.4" y1="3619.74" x2="2241.46" y2="3445.76">
  </linearGradient>
  <linearGradient id="id27" gradientUnits="userSpaceOnUse" xlink:href="#id21" x1="9862.08" y1="3621.69" x2="10509.8" y2="3447.81">
  </linearGradient>
  <linearGradient id="id28" gradientUnits="userSpaceOnUse" xlink:href="#id21" x1="11204" y1="3619.07" x2="11850.8" y2="3445.43">
  </linearGradient>
  <linearGradient id="id29" gradientUnits="userSpaceOnUse" x1="5648.4" y1="3612.55" x2="6248.46" y2="3451.95">
   <stop offset="0" style="stop-color:#342223"/>
   <stop offset="0.101961" style="stop-color:#895B25"/>
   <stop offset="0.290196" style="stop-color:#CDAC33"/>
   <stop offset="0.439216" style="stop-color:#F9F3AB"/>
   <stop offset="0.6" style="stop-color:#D5B26A"/>
   <stop offset="0.721569" style="stop-color:#D2AD4B"/>
   <stop offset="1" style="stop-color:#6C3C22"/>
  </linearGradient>
  <linearGradient id="id30" gradientUnits="userSpaceOnUse" xlink:href="#id29" x1="2979.81" y1="3612.44" x2="3571.05" y2="3454.06">
  </linearGradient>
  <linearGradient id="id31" gradientUnits="userSpaceOnUse" xlink:href="#id29" x1="5652.81" y1="3612.44" x2="6244.05" y2="3454.06">
  </linearGradient>
  <linearGradient id="id32" gradientUnits="userSpaceOnUse" xlink:href="#id29" x1="2975.26" y1="3612.73" x2="3575.6" y2="3451.77">
  </linearGradient>
  <linearGradient id="id33" gradientUnits="userSpaceOnUse" xlink:href="#id29" x1="8527.59" y1="3613.78" x2="9128.27" y2="3452.72">
  </linearGradient>
  <linearGradient id="id34" gradientUnits="userSpaceOnUse" xlink:href="#id29" x1="8532.11" y1="3611.14" x2="9123.75" y2="3452.36">
  </linearGradient>
 </defs>
 <g id="Warstwa_x0020_1">
  <metadata id="CorelCorpID_0Corel-Layer"/>
  <g id="_1122420432">
   <g id="_757780000">
    <path class="fil0" d="M6848 5l-90 0c-6,0 -9,3 -9,9 0,6 3,9 9,9 17,0 26,14 26,40l-324 1570 -200 -966 124 -599 0 -3 3 -12c8,-21 22,-32 43,-32 6,0 9,-3 9,-9 0,-6 -3,-9 -9,-9l-90 0c-6,0 -9,3 -9,9 0,6 3,9 9,9 17,0 26,14 26,40l-116 561 -116 -555c0,-31 9,-46 26,-46 6,0 9,-3 9,-9 0,-6 -3,-9 -9,-9l-237 0c-6,0 -9,3 -9,9 0,6 3,9 9,9 6,0 12,2 19,7 7,5 13,11 19,19 6,8 9,15 9,23l197 949 -124 613 -227 -1097 0 -477c0,-12 3,-21 10,-27 7,-7 15,-10 25,-10 6,0 9,-3 9,-9 0,-6 -3,-9 -9,-9l-234 0c-6,0 -9,3 -9,9 0,6 3,9 9,9 10,0 18,3 25,10 7,7 10,16 10,27l0 1553c0,112 -26,208 -77,288 -51,80 -112,120 -184,120 -71,0 -133,-40 -185,-120 -52,-80 -78,-176 -78,-288 0,-6 -3,-9 -9,-9l-145 0c-6,0 -9,3 -9,9 0,116 41,215 124,299 83,84 183,126 301,126 118,0 218,-42 301,-126 83,-84 124,-184 124,-299l0 -290 146 706 0 6 6 0c0,2 0,3 1,3 1,0 1,-1 1,-3l6 0 0 -6 75 -353 124 -613 200 966 3 3 0 3 6 0 0 3c2,0 3,-1 3,-3l6 0 0 -6 75 -353 333 -1608 0 -3 3 -12c8,-21 22,-32 43,-32 6,0 9,-3 9,-9 0,-6 -3,-9 -9,-9l2 4z"/>
    <path class="fil1" d="M775 2935l-2 0 2 2 0 -2zm-249 0l-2 0 2 2 0 -2zm282 -10c3,0 5,2 5,5 0,3 -2,5 -5,5 -13,0 -21,6 -26,19l-2 7 0 2 -199 963 -45 211 0 3 -3 0c0,1 -1,2 -2,2l0 -2 -3 0 0 -2 -2 -2 -119 -578 -74 367 -45 211 0 3 -3 0c0,1 0,2 -1,2 -1,0 -1,-1 -1,-2l-3 0 0 -3 -242 -1172c-1,-5 -3,-9 -6,-14 -3,-5 -7,-8 -11,-11 -5,-3 -9,-4 -12,-4 -3,0 -5,-2 -5,-5 0,-4 2,-5 5,-5l142 0c3,0 5,2 5,5 0,3 -2,5 -5,5 -10,0 -16,9 -16,28l194 937 74 -367 -118 -568c0,-5 -2,-9 -5,-14 -3,-5 -7,-8 -11,-11 -4,-3 -8,-4 -11,-4 -3,0 -5,-2 -5,-5 0,-4 2,-5 5,-5l142 0c3,0 5,2 5,5 0,3 -2,5 -5,5 -10,0 -16,9 -16,28l69 332 69 -336c0,-16 -5,-24 -16,-24 -3,0 -5,-2 -5,-5 0,-4 2,-5 5,-5l54 0c3,0 5,2 5,5 0,3 -2,5 -5,5 -13,0 -21,6 -26,19l-2 7 0 2 -74 358 119 578 194 -940c0,-16 -5,-24 -16,-24 -3,0 -5,-2 -5,-5 0,-4 2,-5 5,-5l54 0 -1 -1z"/>
    <path class="fil2" d="M530 2947l-17 -17 17 0 0 17zm249 0l-17 -17 17 0 0 17zm-248 1188l1 0 45 -211 199 -963 0 -1 2 -8c5,-15 16,-22 30,-22l1 -1 -1 -1 -54 0 -1 1 1 1c9,0 20,5 20,29l-198 962 -124 -600 0 -1 74 -358 0 -1 2 -8c5,-15 16,-22 30,-22l1 -1 -1 -1 -54 0 -1 1 1 1c9,0 20,5 20,29l-74 358 -74 -353c0,-27 11,-33 20,-33l1 -1 -1 -1 -142 0 -1 1 1 1c4,0 9,2 14,5 4,3 9,7 12,12 4,5 6,11 6,16l118 568 -79 389 -198 -958c0,-27 11,-33 20,-33l1 -1 -1 -1 -142 0 -1 1 1 1c4,0 9,2 14,5 5,3 9,8 13,13 3,5 5,10 7,15l243 1172 45 -211 79 -388 124 598 1 1 0 -1zm0 10l-4 0 0 -2 -3 0 0 -5 -1 -1 0 -1 -115 -557 -70 346 -45 211 0 7 -5 0c-2,2 -6,2 -8,0l-5 0 0 -8 -242 -1171c-1,-4 -3,-8 -5,-12 -3,-4 -6,-7 -10,-10 -4,-2 -7,-4 -10,-4 -6,0 -10,-4 -10,-10 0,-6 4,-10 10,-10l142 0c6,0 10,4 10,10 0,6 -4,10 -10,10 -3,0 -11,0 -11,23l189 915 70 -345 -118 -567c0,-5 -2,-8 -4,-12 -3,-4 -7,-8 -10,-10 -3,-2 -6,-4 -9,-4 -6,0 -10,-4 -10,-10 0,-6 4,-10 10,-10l142 0c6,0 10,4 10,10 0,6 -4,10 -10,10 -3,0 -11,0 -11,23l65 311 65 -315c0,-19 -8,-19 -11,-19 -6,0 -10,-4 -10,-10 0,-6 4,-10 10,-10l54 0c6,0 10,4 10,10 0,6 -4,10 -10,10 -11,0 -18,5 -22,16l-2 7 0 1 -74 358 115 557 190 -919c0,-19 -8,-19 -11,-19 -6,0 -10,-4 -10,-10 0,-6 4,-10 10,-10l54 0c6,0 10,4 10,10 0,6 -4,10 -10,10 -11,0 -18,5 -22,16l-2 7 0 1 -199 964 -45 211 0 7 -5 0c-1,1 -3,2 -4,2l-3 -2z"/>
    <path class="fil3" d="M2193 2935c-6,0 -11,2 -16,6 -5,4 -7,9 -7,16l0 1151c0,6 2,11 7,16 5,5 10,7 16,7 3,0 5,2 5,5 0,3 -2,5 -5,5l-142 0c-3,0 -5,-2 -5,-5 0,-3 2,-5 5,-5 7,0 12,-2 16,-7 4,-5 6,-10 6,-16l0 -575 -313 -459 0 1034c0,6 2,11 6,16 4,5 10,7 16,7 3,0 5,2 5,5 0,3 -2,5 -5,5l-142 0c-3,0 -5,-2 -5,-5 0,-3 2,-5 5,-5 6,0 11,-2 16,-7 5,-5 7,-10 7,-16l0 -1153c0,-6 -2,-11 -7,-15 -5,-4 -10,-6 -16,-6 -3,0 -5,-2 -5,-5 0,-4 2,-5 5,-5l26 0 2 0 2 0 0 2 2 0 402 590 0 -559c0,-7 -2,-12 -6,-16 -4,-4 -10,-6 -16,-6 -3,0 -5,-2 -5,-5 0,-4 2,-5 5,-5l142 0c3,0 5,2 5,5 0,3 -2,5 -5,5l-1 0z"/>
    <path class="fil4" d="M1755 3061l322 472 0 576c0,7 -2,13 -7,18 -5,6 -12,8 -20,8l-1 1 1 1 142 0 1 -1 -1 -1c-7,0 -13,-3 -19,-8 -5,-5 -8,-12 -8,-19l0 -1151c0,-8 3,-15 8,-20 5,-5 12,-7 18,-7l1 0 0 -2 -143 0 -1 1 1 1c8,0 15,3 20,7 5,5 7,12 7,20l0 573 -408 -600 -4 0 0 -2 -25 0 -1 1 1 1c7,0 13,2 18,7 6,5 8,11 8,18l0 1153c0,7 -3,13 -8,19 -5,5 -12,8 -19,8l-1 1 1 1 142 0 1 -1 -1 -1c-8,0 -15,-3 -20,-8 -5,-5 -7,-12 -7,-18l0 -1048 2 0zm437 1085l-142 0c-6,0 -10,-4 -10,-10 0,-6 4,-10 10,-10 6,0 10,-2 13,-5 3,-4 5,-8 5,-13l0 -574 -305 -446 0 1019c0,5 2,9 5,13 3,4 7,5 13,5 6,0 10,4 10,10 0,6 -4,10 -10,10l-142 0c-6,0 -10,-4 -10,-10 0,-6 4,-10 10,-10 5,0 9,-2 12,-6 4,-4 6,-8 6,-12l0 -1153c0,-5 -2,-8 -5,-11 -4,-3 -8,-5 -13,-5 -6,0 -10,-4 -10,-10 0,-6 4,-10 10,-10l34 0 0 2 1 1 394 579 0 -545c0,-6 -2,-10 -5,-13 -3,-3 -8,-5 -13,-5 -6,0 -10,-4 -10,-10 0,-6 4,-10 10,-10l142 0c6,0 10,4 10,10 0,6 -4,10 -10,10 -5,0 -9,2 -13,5 -4,3 -5,8 -5,13l0 1151c0,5 2,9 6,12 4,4 8,6 12,6 6,0 10,4 10,10 0,6 -4,10 -10,10l0 2z"/>
    <path class="fil5" d="M3431 3887l0 -708c0,-67 -15,-124 -46,-172 -31,-48 -67,-72 -110,-72 -29,0 -55,11 -79,33 -24,22 -43,52 -57,89 -14,38 -22,78 -22,122l0 708c0,67 16,124 47,172 31,48 68,72 111,72 43,0 79,-24 110,-72 31,-48 46,-105 46,-172zm-336 -888c50,-50 110,-74 180,-74 70,0 130,25 180,74 50,50 74,110 74,180l0 708c0,69 -25,129 -74,179 -50,50 -110,75 -180,75 -70,0 -130,-25 -180,-75 -50,-50 -74,-110 -74,-179l0 -708c0,-70 25,-130 74,-180z"/>
    <path class="fil6" d="M3275 2939c-28,0 -53,11 -76,32 -23,21 -42,51 -56,88 -14,37 -21,77 -21,120l0 708c0,66 15,123 46,170 30,46 66,70 107,70 41,0 77,-24 106,-70 30,-47 45,-104 45,-170l0 -708c0,-66 -15,-123 -45,-170 -30,-46 -65,-70 -106,-70zm0 1196c-44,0 -83,-25 -114,-74 -32,-48 -47,-107 -47,-175l0 -708c0,-44 7,-86 22,-124 15,-38 34,-68 58,-91 24,-23 52,-34 82,-34 44,0 82,25 114,74 31,48 47,107 47,175l0 708c0,67 -16,126 -47,175 -31,49 -70,74 -114,74l-1 0zm0 -1207c-69,0 -128,25 -177,73 -49,48 -73,108 -73,177l0 708c0,68 25,127 73,176 49,49 108,74 177,74 69,0 128,-25 177,-74 49,-49 73,-108 73,-176l0 -708c0,-69 -25,-128 -73,-177 -49,-49 -108,-73 -177,-73zm0 1217c-71,0 -133,-26 -183,-77 -50,-51 -76,-112 -76,-182l0 -708c0,-71 25,-133 76,-183 50,-50 112,-76 183,-76 71,0 133,25 183,76 50,50 76,112 76,183l0 708c0,70 -25,132 -76,182 -50,51 -112,77 -183,77z"/>
    <path class="fil7" d="M4634 3527c28,0 54,-11 78,-33 24,-22 43,-52 57,-89 14,-37 21,-78 21,-122l0 -104c0,-67 -15,-124 -46,-172 -31,-48 -68,-72 -112,-72l-156 0 0 594 154 0 2 -2 2 0zm275 604c3,0 5,2 5,5 0,3 -2,5 -5,5l-142 0c-3,0 -5,-2 -5,-5 0,-3 2,-5 5,-5 7,0 12,-2 16,-7 4,-5 6,-10 6,-16l0 -326c0,-68 -15,-126 -46,-173 -31,-47 -68,-71 -112,-71l-156 0 0 570c0,6 2,11 6,16 4,5 10,7 16,7 3,0 5,2 5,5 0,3 -2,5 -5,5l-142 0c-3,0 -5,-2 -5,-5 0,-3 2,-5 5,-5 6,0 11,-2 16,-7 5,-5 7,-10 7,-16l0 -1151c0,-7 -2,-12 -7,-16 -5,-4 -10,-6 -16,-6 -3,0 -5,-2 -5,-5 0,-4 2,-5 5,-5l275 0c70,0 130,25 180,74 50,50 74,110 74,180l0 104c0,61 -19,115 -58,163 -39,47 -87,76 -146,87 59,12 108,41 146,88 39,47 58,102 58,163l0 326c0,6 2,11 7,16 5,5 10,7 16,7l2 -2z"/>
    <path class="fil8" d="M4481 3525l148 0 1 -1 4 0c26,0 52,-11 75,-32 24,-21 42,-51 56,-87 14,-37 20,-77 20,-120l0 -104c0,-66 -15,-123 -45,-170 -30,-46 -66,-70 -108,-70l-151 0 0 585 0 -1zm152 9l-160 0 0 -603 160 0c45,0 84,25 115,74 31,48 47,107 47,175l0 104c0,44 -7,86 -21,124 -14,38 -34,69 -58,91 -25,23 -52,34 -81,34l-2 2 0 -1zm-160 2l160 0c45,0 84,25 115,73 31,48 47,107 47,176l0 326c0,7 -2,13 -7,18 -5,6 -11,8 -20,8l-1 1 1 1 142 0 1 -1 -1 -1c-7,0 -13,-3 -19,-8 -5,-5 -8,-12 -8,-19l0 -326c0,-60 -19,-114 -57,-160 -38,-46 -86,-75 -144,-87l-23 -5 23 -4c58,-10 106,-39 144,-85 38,-46 57,-100 57,-160l0 -104c0,-69 -25,-128 -73,-177 -48,-49 -108,-73 -177,-73l-275 0 -1 1 1 1c7,0 13,2 18,7 6,5 8,12 8,20l0 1151c0,7 -3,13 -8,19 -5,5 -12,8 -19,8l-1 1 1 1 142 0 1 -1 -1 -1c-8,0 -15,-3 -20,-8 -5,-5 -7,-12 -7,-18l0 -574 1 0zm437 611l-142 0c-6,0 -10,-4 -10,-10 0,-6 4,-10 10,-10 6,0 10,-2 13,-5 3,-4 5,-8 5,-13l0 -326c0,-67 -15,-124 -45,-171 -30,-46 -66,-69 -108,-69l-151 0 0 565c0,5 2,9 5,13 3,4 7,5 13,5 6,0 10,4 10,10 0,6 -4,10 -10,10l-142 0c-6,0 -10,-4 -10,-10 0,-6 4,-10 10,-10 5,0 9,-2 12,-6 4,-4 6,-8 6,-12l0 -1151c0,-6 -2,-10 -5,-13 -4,-3 -8,-5 -13,-5 -6,0 -10,-4 -10,-10 0,-6 4,-10 10,-10l275 0c71,0 133,25 183,76 50,50 76,112 76,183l0 104c0,62 -20,118 -59,166 -35,43 -78,71 -130,84 51,14 95,43 130,85 39,48 59,104 59,166l0 326c0,5 2,9 6,12 4,4 8,6 12,6 6,0 10,4 10,10 0,6 -4,10 -10,10z"/>
    <path class="fil9" d="M6104 3887l0 -708c0,-67 -15,-124 -46,-172 -31,-48 -67,-72 -110,-72 -29,0 -55,11 -79,33 -24,22 -43,52 -57,89 -14,38 -22,78 -22,122l0 708c0,67 16,124 47,172 31,48 68,72 111,72 43,0 79,-24 110,-72 31,-48 46,-105 46,-172zm-336 -888c50,-50 110,-74 180,-74 70,0 130,25 180,74 50,50 74,110 74,180l0 708c0,69 -25,129 -74,179 -50,50 -110,75 -180,75 -70,0 -130,-25 -180,-75 -50,-50 -74,-110 -74,-179l0 -708c0,-70 25,-130 74,-180z"/>
    <path class="fil10" d="M5948 2939c-28,0 -53,11 -76,32 -23,21 -42,51 -56,88 -14,37 -21,77 -21,120l0 708c0,66 15,123 46,170 30,46 66,70 107,70 41,0 77,-24 106,-70 30,-47 45,-104 45,-170l0 -708c0,-66 -15,-123 -45,-170 -30,-46 -65,-70 -106,-70zm0 1196c-44,0 -83,-25 -115,-74 -31,-48 -47,-107 -47,-175l0 -708c0,-44 7,-86 22,-124 15,-38 34,-69 58,-91 24,-23 52,-34 82,-34 44,0 82,25 114,74 31,48 47,107 47,175l0 708c0,68 -16,126 -47,175 -31,49 -70,74 -114,74zm0 -1207c-69,0 -128,25 -177,73 -49,48 -73,108 -73,177l0 708c0,68 25,127 73,176 49,49 108,74 177,74 69,0 128,-25 177,-74 48,-49 73,-108 73,-176l0 -708c0,-69 -25,-128 -73,-177 -49,-49 -108,-73 -177,-73zm0 1217c-71,0 -133,-26 -183,-77 -50,-51 -76,-112 -76,-182l0 -708c0,-71 25,-133 76,-183 50,-50 112,-76 183,-76 71,0 133,25 183,76 50,50 76,112 76,183l0 708c0,70 -26,132 -76,182 -50,51 -112,77 -183,77z"/>
    <path class="fil11" d="M7756 2935l-2 0 2 2 0 -2zm-249 0l-2 0 2 2 0 -2zm282 -10c3,0 5,2 5,5 0,3 -2,5 -5,5 -13,0 -21,6 -26,19l-2 7 0 2 -199 963 -45 211 0 3 -3 0c0,1 -1,2 -2,2l0 -2 -3 0 0 -2 -2 -2 -120 -578 -74 367 -45 211 0 3 -3 0c0,1 0,2 -1,2 -1,0 -1,-1 -1,-2l-3 0 0 -3 -242 -1172c-1,-5 -3,-9 -6,-14 -3,-5 -7,-8 -11,-11 -5,-3 -9,-4 -12,-4 -4,0 -5,-2 -5,-5 0,-4 2,-5 5,-5l142 0c4,0 5,2 5,5 0,3 -2,5 -5,5 -10,0 -16,9 -16,28l194 937 74 -367 -118 -568c0,-5 -2,-9 -5,-14 -3,-5 -7,-8 -11,-11 -4,-3 -8,-4 -11,-4 -3,0 -5,-2 -5,-5 0,-4 2,-5 5,-5l142 0c3,0 5,2 5,5 0,3 -2,5 -5,5 -10,0 -16,9 -16,28l69 332 69 -336c0,-16 -5,-24 -16,-24 -4,0 -5,-2 -5,-5 0,-4 2,-5 5,-5l54 0c4,0 5,2 5,5 0,3 -2,5 -5,5 -13,0 -21,6 -26,19l-2 7 0 2 -74 358 119 578 194 -940c0,-16 -5,-24 -16,-24 -3,0 -5,-2 -5,-5 0,-4 2,-5 5,-5l54 0 0 -1z"/>
    <path class="fil12" d="M7511 2947l-17 -17 17 0 0 17zm249 0l-17 -17 17 0 0 17zm-248 1188l1 0 45 -211 199 -963 0 -1 2 -8c5,-15 16,-22 30,-22l1 -1 -1 -1 -54 0 -1 1 1 1c9,0 20,5 20,29l-198 962 -124 -600 75 -359 0 -1 2 -8c5,-15 16,-22 30,-22l1 -1 -1 -1 -54 0 -1 1 1 1c9,0 20,5 20,29l-74 358 -74 -353c0,-27 11,-33 20,-33l1 -1 -1 -1 -142 0 -1 1 1 1c4,0 9,2 14,5 4,3 8,7 12,12 4,5 6,11 6,16l118 568 0 1 -79 388 -198 -958c0,-27 11,-33 20,-33l1 -1 -1 -1 -142 0 -1 1 1 1c4,0 9,2 14,5 5,3 9,8 13,13 3,5 5,10 7,15l242 1172 0 0 45 -211 79 -388 124 598 1 1 0 -1zm0 10l-4 0 0 -2 -3 0 0 -5 -1 -1 0 -1 -115 -557 -70 346 -45 211 0 7 -5 0c-2,2 -6,2 -8,0l-5 0 0 -8 -242 -1171c-1,-4 -3,-8 -6,-12 -3,-4 -6,-7 -10,-10 -4,-2 -7,-4 -10,-4 -6,0 -10,-4 -10,-10 0,-6 4,-10 10,-10l142 0c6,0 10,4 10,10 0,6 -4,10 -10,10 -3,0 -11,0 -11,23l189 915 70 -345 -118 -567c0,-5 -2,-8 -4,-12 -3,-4 -7,-8 -10,-10 -3,-2 -6,-4 -9,-4 -6,0 -10,-4 -10,-10 0,-6 4,-10 10,-10l142 0c6,0 10,4 10,10 0,6 -4,10 -10,10 -3,0 -11,0 -11,23l65 311 65 -315c0,-19 -8,-19 -11,-19 -6,0 -10,-4 -10,-10 0,-6 4,-10 10,-10l54 0c6,0 10,4 10,10 0,6 -4,10 -10,10 -11,0 -18,5 -22,16l-2 7 0 1 -74 358 115 557 190 -919c0,-19 -8,-19 -11,-19 -6,0 -10,-4 -10,-10 0,-6 4,-10 10,-10l54 0c6,0 10,4 10,10 0,6 -4,10 -10,10 -11,0 -18,5 -22,16l-2 7 0 1 -199 964 -45 211 0 7 -5 0c-1,1 -3,2 -4,2l-2 -2z"/>
    <path class="fil13" d="M8937 3007c-31,-48 -67,-72 -110,-72 -43,0 -80,21 -111,61 -31,41 -47,90 -47,148l0 128c0,59 16,109 47,150 31,41 68,61 111,61 70,0 130,25 180,74 50,50 74,110 74,180l0 147c0,70 -25,130 -74,180 -50,50 -110,74 -180,74 -70,0 -130,-25 -180,-74 -50,-50 -74,-110 -74,-180 0,-3 2,-5 5,-5l87 0c3,0 5,2 5,5 0,68 16,126 47,173 31,47 68,71 111,71 43,0 79,-20 110,-61 31,-41 46,-90 46,-148l0 -128c0,-58 -15,-107 -46,-149 -31,-42 -67,-62 -110,-62 -70,0 -130,-25 -180,-74 -50,-50 -74,-110 -74,-180l0 -147c0,-70 25,-130 74,-180 50,-50 110,-74 180,-74 70,0 130,25 180,74 50,50 74,110 74,180 0,3 -2,5 -5,5l-88 0c-3,0 -5,-2 -5,-5 0,-67 -15,-124 -46,-172l-1 0z"/>
    <path class="fil14" d="M8578 3885l-1 1c0,69 25,128 73,177 48,48 108,73 177,73 69,0 128,-25 177,-73 48,-49 73,-108 73,-177l0 -147c0,-69 -25,-128 -73,-177 -49,-49 -108,-73 -177,-73 -44,0 -82,-21 -114,-63 -32,-42 -48,-93 -48,-152l0 -128c0,-58 16,-109 48,-151 32,-42 70,-63 114,-63 44,0 82,25 114,74 31,48 47,107 47,175l1 1 88 0 1 -1c0,-69 -25,-128 -73,-177 -49,-49 -108,-73 -177,-73 -69,0 -128,25 -177,73 -49,48 -73,108 -73,177l0 147c0,69 25,128 73,177 48,48 108,73 177,73 44,0 82,22 114,64 31,42 47,93 47,151l0 128c0,58 -16,109 -47,151 -31,42 -70,63 -114,63 -44,0 -83,-25 -115,-73 -31,-48 -47,-107 -47,-176l-1 -1 -87 0zm249 260c-71,0 -133,-26 -183,-76 -50,-50 -76,-112 -76,-183 0,-6 4,-10 10,-10l87 0c6,0 10,4 10,10 0,67 15,124 46,171 30,46 66,69 107,69 41,0 77,-20 106,-60 30,-40 45,-89 45,-145l0 -128c0,-57 -15,-106 -45,-146 -30,-40 -65,-61 -106,-61 -71,0 -133,-26 -183,-76 -50,-50 -76,-112 -76,-183l0 -147c0,-71 25,-133 76,-183 50,-50 112,-76 183,-76 71,0 133,25 183,76 50,50 76,112 76,183 0,6 -4,10 -10,10l-88 0c-6,0 -10,-4 -10,-10 0,-66 -15,-123 -45,-170 -30,-46 -65,-70 -106,-70 -41,0 -77,20 -107,60 -30,40 -46,89 -46,145l0 128c0,58 15,107 46,147 30,40 66,60 107,60 71,0 133,25 183,76 50,50 76,112 76,183l0 147c0,71 -26,133 -76,183 -50,50 -112,76 -183,76l-1 0z"/>
    <path class="fil15" d="M10462 2925c3,0 5,2 5,5 0,3 -2,5 -5,5 -12,0 -22,8 -31,24l-216 632 225 542c1,3 1,6 -2,7 -1,1 -2,2 -4,2 -2,0 -3,-1 -3,-3l-220 -533 -182 532 0 2 -2 0 0 2 -2 0 -2 2 -114 0c-3,0 -5,-2 -5,-5 0,-3 2,-5 5,-5 6,0 11,-2 16,-7 4,-5 7,-10 7,-16l0 -1151c0,-7 -2,-12 -7,-16 -5,-4 -10,-6 -16,-6 -3,0 -5,-2 -5,-5 0,-4 2,-5 5,-5l142 0c3,0 5,2 5,5 0,3 -2,5 -5,5 -5,0 -9,1 -12,3 -3,2 -6,4 -8,8 -2,3 -3,7 -3,12l0 890 303 -886c-1,-17 -5,-26 -12,-26 -3,0 -5,-2 -5,-5 0,-4 2,-5 5,-5l142 0 1 -4z"/>
    <path class="fil16" d="M10256 3702l179 434 1 -1c0,0 0,-1 0,-2l-179 -432 -1 1zm-346 -773l-1 1 1 1c7,0 13,2 18,7 6,5 9,12 9,20l0 1151c0,7 -3,13 -8,19 -5,5 -12,8 -19,8l-1 1 1 1 113 -1 0 -3 2 0 185 -541 -1 -2 1 -2 216 -632c10,-18 22,-27 35,-27l1 -1 -1 -1 -142 0 -1 1 1 1c14,0 16,23 16,30l0 1 -312 912 0 -916c0,-5 1,-10 3,-14 2,-4 5,-8 10,-10 4,-2 9,-3 14,-3l1 -1 -1 -1 -142 0 2 1zm525 1217c-4,0 -7,-3 -8,-7l-215 -522 -178 521 0 4 -2 0 0 2 -5 0 -1 1 -116 0c-6,0 -10,-4 -10,-10 0,-6 4,-10 10,-10 5,0 9,-2 12,-6 4,-4 6,-8 6,-12l0 -1151c0,-6 -2,-10 -6,-13 -4,-3 -8,-5 -13,-5 -6,0 -10,-4 -10,-10 0,-6 4,-10 10,-10l142 0c6,0 10,4 10,10 0,6 -4,10 -10,10 -4,0 -7,1 -10,2 -3,1 -5,3 -6,6 -1,3 -2,6 -2,10l0 864 294 -861c-1,-13 -4,-21 -8,-21 -6,0 -10,-4 -10,-10 0,-6 4,-10 10,-10l142 0c6,0 10,4 10,10 0,6 -4,10 -10,10 -10,0 -19,7 -27,22l-216 630 224 540c2,7 -1,11 -3,12 -2,2 -4,3 -6,3l2 1z"/>
    <path class="fil17" d="M11459 3707l223 0 -111 -540 -112 540zm344 424c4,0 5,2 5,5 0,3 -2,5 -5,5l-54 0c-4,0 -5,-2 -5,-5 0,-3 2,-5 5,-5 10,0 16,-8 16,-24l-81 -390 -227 0 -80 386c0,18 5,28 16,28 4,0 5,2 5,5 0,3 -2,5 -5,5l-26 0 -2 -2 0 2 -114 0c-4,0 -5,-2 -5,-5 0,-3 2,-5 5,-5 6,0 11,-3 17,-10 6,-6 10,-13 12,-20l242 -1174 0 -2 2 0 0 -2 2 0c1,0 2,0 4,0l0 2 2 0 0 2 45 213 118 570 81 393 2 9c5,13 13,19 26,19l-1 0z"/>
    <path class="fil18" d="M11465 3703l213 0 -105 -514 -107 514 -1 0zm223 9l-234 0 118 -566 116 566zm-234 2l234 0 82 393c0,25 -11,29 -20,29l-1 1 1 1 54 0 1 -1 -1 -1c-14,0 -25,-8 -30,-22l-2 -9 -199 -963 -45 -211 -1 0 -242 1172c-3,8 -7,15 -13,22 -7,7 -14,11 -21,11l-1 1 1 1 110 0 0 -8 8 8 24 0 1 -1 -1 -1c-9,0 -20,-6 -20,-32l80 -390 1 0zm350 433l-54 0c-6,0 -10,-4 -10,-10 0,-6 4,-10 10,-10 3,0 11,0 11,-20l-80 -385 -220 0 -79 383c0,22 9,22 11,22 6,0 10,4 10,10 0,6 -4,10 -10,10l-142 0c-6,0 -10,-4 -10,-10 0,-6 4,-10 10,-10 4,0 9,-3 14,-8 5,-6 9,-12 11,-18l242 -1173 0 -5 2 0 0 -2 14 0 0 2 2 0 0 6 45 212 201 971c4,10 11,16 22,16 6,0 10,4 10,10 0,6 -4,10 -10,10l0 -1z"/>
    <polygon class="fil19" points="4252,4765 143,4765 "/>
    <polygon class="fil20" points="143,4780 4252,4780 4252,4750 143,4750 "/>
    <polygon class="fil21" points="11828,4765 7718,4765 "/>
    <polygon class="fil22" points="7718,4780 11828,4780 11828,4750 7718,4750 "/>
    <path class="fil23" d="M5164 5000c-10,-1 -19,-1 -27,-1 -60,0 -83,18 -83,33 0,13 17,25 43,25 29,0 68,-14 111,-56 -15,0 -27,-1 -43,-2l-1 1zm215 -246c-26,0 -62,52 -74,85 -17,47 -10,92 -41,155 95,-2 184,-75 246,-146l8 7c-69,77 -160,148 -263,149 -46,52 -96,70 -136,70 -46,0 -79,-24 -79,-46 0,-20 28,-40 100,-40 7,0 15,1 24,1 14,1 26,2 39,2l14 0c36,-40 32,-116 52,-165 12,-32 34,-63 57,-76 10,-6 25,-10 40,-10 18,0 36,8 45,28l-10 4c-5,-13 -12,-18 -21,-18l-1 0z"/>
    <path class="fil24" d="M5137 5007c-56,0 -76,16 -76,26 0,9 14,18 36,18 17,0 51,-6 93,-42 -6,0 -11,-1 -17,-1l-8 0c-9,-1 -19,-1 -27,-1l-1 0zm-40 59c7,1 14,2 22,2 27,0 79,-9 131,-68l2 -2 2 0 3 -6c18,-37 23,-67 28,-96 3,-20 6,-38 13,-58 10,-29 42,-81 73,-89 -2,0 -4,0 -7,0 -12,0 -26,4 -36,9 -20,11 -41,40 -54,72 -8,18 -12,40 -16,64 -7,37 -14,76 -36,102l1 0 -12 12c-50,50 -93,58 -115,58l1 0zm22 17c-52,0 -86,-27 -86,-53 0,-11 8,-48 107,-48 3,0 7,0 11,0 4,0 8,0 13,0l5 0c12,1 23,1 33,1l11 0c19,-23 26,-59 32,-94 4,-23 9,-47 17,-67 14,-36 38,-67 60,-79 12,-7 28,-11 43,-11 24,0 43,12 51,32l3 7 -23 11 -3 -7c-6,-14 -12,-14 -14,-14 -20,0 -55,45 -67,80 -6,18 -9,36 -13,55 -4,26 -9,55 -24,89 92,-8 175,-81 229,-143l5 -6 19 17 -5 6c-60,67 -154,148 -265,152 -55,61 -111,70 -140,70l1 2z"/>
    <path class="fil25" d="M5467 5375l-3 8c-7,-2 -14,-4 -20,-8 -32,-19 -45,-61 -45,-115 0,-213 199,-629 261,-722 18,-32 39,-63 60,-94 -163,-29 -309,-53 -435,-53 -36,0 -70,3 -103,7 -167,23 -273,96 -322,245 -3,4 -5,6 -8,6 -4,0 -6,-3 -6,-7l0 -2c49,-151 168,-235 336,-259 39,-6 79,-9 121,-9 126,0 269,24 429,52 107,-150 232,-279 302,-320 22,-13 48,-26 73,-26 15,0 29,4 41,17l-4 4c-11,-7 -22,-10 -32,-10 -19,0 -38,11 -59,24 -73,43 -190,171 -291,316 19,4 39,7 59,11 77,14 146,19 208,19 340,0 452,-175 452,-175 3,-4 4,-4 5,-4 2,0 3,3 3,4 0,2 0,3 -1,4 0,0 -119,191 -469,191 -61,0 -127,-5 -202,-18 -23,-4 -46,-8 -68,-12 -20,29 -38,58 -55,86 -72,119 -283,545 -283,741 0,43 11,76 35,90 5,4 11,6 18,8l3 1z"/>
    <path class="fil26" d="M6484 4286l0 0zm7 2l0 0zm-1206 97c128,0 279,25 436,53l11 2 -6 9c-22,32 -42,63 -59,94 -65,98 -259,506 -260,716 12,-200 208,-602 283,-726l9 -15c15,-24 30,-48 47,-72l3 -4 5 1c21,4 44,9 67,12 70,12 136,18 201,18 103,0 186,-17 252,-41 -64,21 -143,35 -242,35 -69,0 -138,-6 -210,-19 -20,-4 -39,-7 -59,-11l-11 -2 7 -9c103,-148 221,-276 293,-318l3 -2c9,-5 18,-11 27,-15 -16,5 -31,14 -42,20 -72,41 -198,175 -300,318l-3 4 -5 -1c-167,-29 -304,-52 -427,-52 -44,0 -83,3 -120,9 -39,5 -74,14 -107,26 31,-10 66,-18 104,-23 35,-5 70,-7 104,-7l-1 0zm184 1008l-7 -2c-8,-2 -16,-5 -22,-9 -32,-20 -48,-61 -48,-121 0,-212 197,-627 262,-726 16,-27 34,-56 53,-85 -152,-27 -299,-51 -422,-51 -33,0 -68,2 -102,7 -170,23 -270,99 -315,240l-1 2c-4,6 -9,10 -14,10 -8,0 -13,-6 -13,-14l0 -4c49,-150 164,-239 342,-264 37,-6 78,-9 122,-9 123,0 260,22 425,51 104,-145 228,-275 302,-318 19,-12 49,-27 77,-27 19,0 34,6 46,19l5 5 -12 15 -5 -3c-10,-6 -19,-9 -29,-9 -16,0 -33,10 -52,21l-3 2c-69,41 -182,163 -282,305 16,3 31,6 48,8 71,13 139,19 207,19 332,0 445,-170 446,-171 11,-14 21,-5 21,4 0,2 0,4 -2,8 -2,3 -126,195 -476,195 -66,0 -133,-6 -203,-19 -22,-3 -44,-8 -63,-11 -16,23 -30,45 -43,67l-9 15c-78,128 -282,548 -282,738 0,43 11,71 32,84 5,3 10,6 16,7l8 2 -7 22 0 -3z"/>
    <path class="fil27" d="M5753 4821c0,0 -67,100 -53,127 25,11 165,-128 166,-128 12,-11 26,-7 29,0l-6 4c0,0 -105,127 -74,185 44,45 187,-148 187,-149l4 4c0,1 -147,210 -205,156 -29,-40 4,-112 31,-155 -49,46 -124,122 -153,97 -30,-36 28,-134 47,-159 13,-17 32,2 25,17l2 1z"/>
    <path class="fil28" d="M5740 4805c-2,0 -4,1 -6,4 -23,29 -72,120 -47,150 9,8 27,-1 48,-15 -20,13 -30,13 -36,11l-2 -1 -1 -2c-15,-28 40,-115 53,-133 2,-4 -1,-9 -4,-11 -1,-1 -2,-1 -3,-1l-2 -2zm68 210c4,4 9,6 15,6 -6,-2 -10,-5 -13,-8l-1 -2c-32,-60 64,-180 74,-192 -4,0 -8,2 -12,5l-1 1c-1,1 -3,3 -6,6 -1,1 -3,2 -4,4l-21 35c-19,31 -59,106 -31,146l0 -1zm17 21c-11,0 -20,-4 -28,-11l-1 -1c-24,-33 -10,-82 9,-123 -50,46 -102,90 -130,67 -36,-44 32,-151 46,-169 8,-10 19,-12 28,-6 9,6 15,19 9,31l-1 1c-25,38 -57,96 -53,116 8,-1 40,-16 148,-120 4,-4 6,-6 8,-7l0 0c8,-7 17,-10 26,-8 6,1 12,5 14,10l3 6 -10 7c-28,35 -95,131 -73,176 3,3 8,4 13,4 48,-5 147,-131 161,-150l0 -13 19 15 0 4c0,9 -98,138 -162,166 -10,4 -19,7 -27,7l1 -2z"/>
    <path class="fil29" d="M6734 4286c14,-24 24,-48 24,-67 0,-19 -10,-33 -38,-33 -7,0 -15,1 -25,3 -200,41 -417,424 -488,631 143,-112 439,-389 527,-534zm-614 500c-51,0 -116,93 -116,128 0,2 1,4 1,5 2,5 6,8 12,8 31,0 109,-54 148,-83 1,-6 1,-10 1,-16 0,-24 -13,-38 -40,-42 -2,0 -4,-1 -6,-1l0 1zm54 40c64,-213 287,-604 513,-651 11,-2 20,-4 28,-4 38,0 57,20 57,50 0,19 -8,42 -25,66 -85,141 -398,438 -545,547 -12,34 -39,112 -39,169 0,40 12,71 52,71 14,0 32,-4 53,-12 85,-40 166,-135 218,-209l8 6c-54,78 -144,185 -235,221 -22,9 -40,13 -56,13 -52,0 -69,-45 -69,-99 0,-46 12,-98 26,-136 -44,32 -119,87 -161,87 -8,0 -15,-3 -20,-7 -6,-6 -9,-15 -9,-25 0,-51 72,-144 140,-144 5,0 10,0 15,1 43,9 46,36 48,55l1 1z"/>
    <path class="fil30" d="M6765 4214c0,2 0,4 0,5 0,13 -5,30 -13,48 9,-16 13,-32 13,-46 0,-3 0,-5 -1,-8l1 1zm-45 -21c-6,0 -14,1 -23,3 -193,40 -400,404 -474,603 157,-126 424,-382 505,-516 14,-24 23,-47 23,-63 0,-17 -10,-26 -30,-26l-1 -1zm-708 725c0,1 2,2 5,2 24,0 87,-39 141,-79 0,-4 0,-8 0,-12 0,-20 -11,-31 -33,-35 0,0 -2,0 -3,0l-2 0c-46,0 -109,89 -109,121 0,1 1,2 1,4l0 -1zm99 -140c-62,0 -132,89 -132,137 0,6 1,14 7,19 8,6 22,6 38,1 -13,2 -22,-2 -26,-12l0 -2c-1,-2 -1,-4 -1,-5 0,-38 67,-136 123,-136 1,0 3,0 5,1l2 0c5,1 10,2 14,4 -4,-2 -10,-4 -16,-5 -4,-1 -8,-1 -13,-1l-1 -1zm60 76l-3 7c-16,45 -25,95 -25,134 0,61 21,92 61,92 14,0 31,-4 52,-12 -16,5 -29,7 -40,7 -27,0 -59,-14 -59,-79 0,-40 12,-95 37,-164l-2 2 8 -23c32,-93 100,-241 197,-380 71,-102 178,-227 290,-255 -221,48 -443,439 -505,645l-10 32 -1 -7 0 1zm34 248c-35,0 -76,-19 -76,-107 0,-34 7,-77 19,-117 -56,41 -111,75 -147,75 -9,0 -18,-3 -25,-9 -8,-8 -11,-18 -11,-30 0,-54 74,-151 147,-151 5,0 10,0 16,1 29,6 42,20 48,35 38,-114 111,-254 189,-364 75,-107 192,-240 322,-266l3 -1c10,-2 19,-3 27,-3 40,0 64,22 64,57 0,22 -9,46 -26,70 -84,140 -393,435 -544,548 -25,70 -37,125 -37,164 0,57 25,64 44,64 13,0 29,-4 50,-12 90,-42 173,-147 214,-206l4 -6 20 15 -4 6c-47,67 -139,185 -238,224 -23,9 -42,14 -59,14l0 -1z"/>
    <path class="fil31" d="M6599 4719c0,12 -10,23 -24,23 -13,0 -24,-10 -24,-23 0,-13 11,-24 24,-24 13,0 24,11 24,24zm-106 199c0,8 1,15 4,22 9,12 24,18 43,18 64,0 169,-59 210,-102l7 6c-46,50 -157,112 -228,112 -24,0 -43,-6 -54,-23 -7,-11 -10,-24 -10,-37 0,-54 50,-117 50,-118 4,-6 9,-9 13,-9 9,0 17,10 17,16 0,1 0,2 -1,3 0,0 -51,64 -51,113l0 -1z"/>
    <path class="fil32" d="M6575 4703c-9,0 -16,7 -16,16 0,8 8,15 16,15 9,0 16,-7 16,-15 0,-9 -7,-16 -16,-16zm0 47c-17,0 -31,-13 -31,-30 0,-17 14,-31 31,-31 17,0 31,14 31,31 0,17 -14,30 -31,30zm-37 51l0 0 0 0zm-17 -1c0,1 -1,2 -2,3 -30,42 -47,81 -47,111 0,13 3,24 9,33 9,13 25,19 48,19 6,0 13,0 20,-1 -27,2 -46,-5 -57,-20 -5,-10 -6,-19 -6,-26 0,-47 45,-107 52,-116 -1,-3 -5,-8 -9,-8 -3,0 -6,3 -7,6l-1 -1zm8 181c-29,0 -48,-8 -60,-26 -8,-12 -11,-25 -11,-41 0,-33 17,-75 50,-119l2 -3c6,-8 12,-12 19,-12 13,0 24,13 24,23 0,1 0,5 -3,8 0,0 -49,62 -49,107 0,8 1,13 4,19 6,9 19,14 37,14 63,0 166,-60 205,-100l5 -5 18 16 -5 6c-48,53 -161,114 -234,114l-2 -1z"/>
    <path class="fil33" d="M6750 4932c0,10 4,18 11,18 1,0 3,0 4,-1 15,-4 32,-19 49,-49 3,-6 17,-37 17,-55 0,-9 -3,-15 -10,-15l-2 0c-36,0 -70,69 -70,103l1 -1zm49 -127c0,-1 -1,-3 -1,-3 0,-5 5,-11 11,-11l2 0c7,0 22,8 26,29 18,25 40,40 86,40 11,0 22,-1 34,-3 4,0 6,3 6,4 0,3 -2,5 -6,5 -10,2 -20,2 -31,2 -32,0 -63,-6 -83,-24l0 4c0,15 -5,33 -18,56 -18,32 -39,49 -55,54 -5,2 -11,3 -15,3 -21,0 -31,-18 -31,-40 0,-41 33,-101 90,-101l5 0c-16,-5 -19,-14 -19,-14l-1 -1z"/>
    <path class="fil34" d="M6806 4803c1,1 5,6 15,10l6 2c-4,-12 -13,-16 -16,-16l-2 0c-1,0 -3,2 -3,3l0 1zm150 58l3 6 -2 -7 -1 1zm-135 -24c-30,0 -63,62 -63,96 0,4 1,10 4,10l2 -1c9,-3 26,-12 45,-46 3,-6 16,-35 16,-52 0,-2 0,-8 -2,-8l-2 0 0 1zm-22 -8c-42,9 -67,57 -67,92 0,12 3,31 20,33 -4,-3 -8,-10 -8,-21 0,-30 24,-85 56,-104l-1 0zm-44 140c-23,0 -38,-18 -38,-48 0,-41 30,-96 80,-107 -3,-3 -4,-5 -4,-6l-1 -2c-1,-2 -1,-3 -1,-4 0,-9 9,-18 18,-18l2 0c11,0 28,10 32,33 1,1 2,2 3,4l18 6 -13 0c15,16 35,26 71,26 10,0 21,-1 33,-3 9,0 14,6 14,12 0,6 -5,13 -13,13 -9,2 -20,2 -31,2 -23,0 -53,-3 -77,-17 -2,15 -8,31 -18,49 -18,32 -40,52 -60,57 -5,2 -11,3 -17,3l2 0z"/>
   </g>
  </g>
 </g>
</svg>
