<svg width="30" height="19" viewBox="0 0 30 19" fill="none" xmlns="http://www.w3.org/2000/svg">
<path d="M1.37015 1.49276C2.1634 1.91102 13.1824 7.91811 13.5935 8.13445C14.0045 8.35079 14.4228 8.45175 15.0718 8.45175C15.7208 8.45175 16.1391 8.35079 16.5501 8.13445C16.9612 7.91811 27.9802 1.91102 28.7734 1.49276C29.0691 1.34132 29.5667 1.06729 29.6749 0.757196C29.8624 0.20913 29.6604 0 28.86 0H15.0718H1.28361C0.48315 0 0.28123 0.216342 0.468727 0.757196C0.576898 1.0745 1.07448 1.34132 1.37015 1.49276Z" fill="#BE9722"/>
<path d="M29.4008 1.81727C28.8095 2.12015 23.5019 5.89892 19.99 8.17051L25.9177 14.841C26.062 14.9853 26.1269 15.1583 26.0475 15.2449C25.961 15.3242 25.7735 15.2809 25.6221 15.1439L18.5116 9.14405C17.4371 9.83634 16.6799 10.3123 16.5501 10.3844C15.9949 10.6657 15.6055 10.7017 15.0718 10.7017C14.5382 10.7017 14.1488 10.6657 13.5935 10.3844C13.4565 10.3123 12.7065 9.83634 11.632 9.14405L4.52154 15.1439C4.37731 15.2882 4.18261 15.3314 4.09607 15.2449C4.00953 15.1656 4.07444 14.9853 4.21866 14.841L10.1392 8.17051C6.62727 5.89892 1.26199 2.12015 0.670659 1.81727C0.0360569 1.49276 0 1.87497 0 2.17063C0 2.4663 0 16.954 0 16.954C0 17.6246 0.987961 18.4612 1.69468 18.4612H15.0718H28.4489C29.1557 18.4612 29.9994 17.6174 29.9994 16.954C29.9994 16.954 29.9994 2.45909 29.9994 2.17063C29.9994 1.86776 30.0427 1.49276 29.4008 1.81727Z" fill="#BE9722"/>
</svg>
