<svg width="16" height="19" viewBox="0 0 16 19" fill="none" xmlns="http://www.w3.org/2000/svg">
<path d="M3.25532 7.49485C4.30175 10.2063 6.19306 12.5308 8.63971 14.1071L10.8491 12.3052C11.1253 12.0806 11.4924 12.0447 11.7962 12.1771C12.7814 12.6188 13.8599 12.9136 14.9935 13.0301C15.4989 13.082 15.8624 13.5288 15.8105 14.0341L15.4831 17.221C15.4312 17.7263 14.9844 18.0899 14.479 18.038C5.92915 17.1596 -0.288101 9.51857 0.590292 0.968696C0.64221 0.463352 1.09358 0.100262 1.59437 0.151712L4.78122 0.479122C5.28656 0.53104 5.65012 0.977853 5.5982 1.4832C5.48174 2.61681 5.55112 3.7327 5.78325 4.78711C5.85113 5.11153 5.74134 5.46371 5.46522 5.68838L3.25532 7.49485Z" fill="#BE9722"/>
</svg>
